<?xml version="1.0" encoding="UTF-8" standalone="no"?>
<!-- Created with Inkscape (http://www.inkscape.org/) -->

<svg
   xmlns:dc="http://purl.org/dc/elements/1.1/"
   xmlns:cc="http://creativecommons.org/ns#"
   xmlns:rdf="http://www.w3.org/1999/02/22-rdf-syntax-ns#"
   xmlns:svg="http://www.w3.org/2000/svg"
   xmlns="http://www.w3.org/2000/svg"
   xmlns:xlink="http://www.w3.org/1999/xlink"
   xmlns:sodipodi="http://sodipodi.sourceforge.net/DTD/sodipodi-0.dtd"
   xmlns:inkscape="http://www.inkscape.org/namespaces/inkscape"
   width="40"
   height="35"
   id="svg2"
   version="1.1"
   inkscape:version="0.48.5 r10040"
   sodipodi:docname="green.svg"
   inkscape:export-filename="/Users/takaya/Documents/javascript/puyopuyo/image/puyo4.png"
   inkscape:export-xdpi="90"
   inkscape:export-ydpi="90">
  <defs
     id="defs4">
    <linearGradient
       id="linearGradient4129">
      <stop
         style="stop-color:#ffffff;stop-opacity:1;"
         offset="0"
         id="stop4131" />
      <stop
         style="stop-color:#2b8afd;stop-opacity:0;"
         offset="1"
         id="stop4133" />
    </linearGradient>
    <linearGradient
       id="linearGradient3996">
      <stop
         style="stop-color:#ffffff;stop-opacity:1;"
         offset="0"
         id="stop3998" />
      <stop
         style="stop-color:#ffffff;stop-opacity:0;"
         offset="1"
         id="stop4000" />
    </linearGradient>
    <linearGradient
       id="linearGradient3956">
      <stop
         style="stop-color:#ffffff;stop-opacity:1;"
         offset="0"
         id="stop3958" />
      <stop
         style="stop-color:#ebc921;stop-opacity:0;"
         offset="1"
         id="stop3960" />
    </linearGradient>
    <radialGradient
       inkscape:collect="always"
       xlink:href="#linearGradient4129"
       id="radialGradient4135"
       cx="10.885154"
       cy="7.0426469"
       fx="10.885154"
       fy="7.0426469"
       r="8.7158012"
       gradientTransform="matrix(0.41383809,0.55453209,-0.91598743,0.68358639,14.277236,-4.0386157)"
       gradientUnits="userSpaceOnUse" />
    <radialGradient
       inkscape:collect="always"
       xlink:href="#linearGradient3996"
       id="radialGradient4164"
       cx="10.573974"
       cy="13.20783"
       fx="10.573974"
       fy="13.20783"
       r="8.9986343"
       gradientTransform="matrix(0.27825312,0.37099366,-0.82939423,0.62206325,19.737854,0.6126521)"
       gradientUnits="userSpaceOnUse" />
  </defs>
  <sodipodi:namedview
     id="base"
     pagecolor="#ffffff"
     bordercolor="#666666"
     borderopacity="1.0"
     inkscape:pageopacity="0.0"
     inkscape:pageshadow="2"
     inkscape:zoom="8"
     inkscape:cx="30.961205"
     inkscape:cy="15.779627"
     inkscape:document-units="px"
     inkscape:current-layer="layer1"
     showgrid="false"
     inkscape:window-width="1277"
     inkscape:window-height="748"
     inkscape:window-x="0"
     inkscape:window-y="0"
     inkscape:window-maximized="0" />
  <metadata
     id="metadata7">
    <rdf:RDF>
      <cc:Work
         rdf:about="">
        <dc:format>image/svg+xml</dc:format>
        <dc:type
           rdf:resource="http://purl.org/dc/dcmitype/StillImage" />
        <dc:title></dc:title>
      </cc:Work>
    </rdf:RDF>
  </metadata>
  <g
     inkscape:label="レイヤー 1"
     inkscape:groupmode="layer"
     id="layer1"
     transform="translate(0,-1017.3622)">
    <path
       transform="translate(0,1017.3622)"
       style="fill:#41c145;fill-opacity:1;stroke:#000000;stroke-opacity:1"
       d="M 37.127897,27.173808 C 33.4283,31.362349 26.677607,32.120794 21.089507,32.057259 14.952496,31.987483 7.5684166,30.978693 3.6021799,26.295026 1.7209831,24.07355 1.6256457,20.501918 2.2729528,17.663811 2.9168911,14.840475 4.9286621,12.312053 7.1875,10.5 10.920053,7.505724 15.719929,5.0796391 20.504698,5.139867 c 4.806254,0.060498 9.616959,2.5573467 13.237233,5.719206 2.346497,2.049373 4.25309,4.940919 4.827777,8.002897 0.51871,2.763732 0.419743,6.204259 -1.441811,8.311838 z"
       id="path2985"
       inkscape:connector-curvature="0"
       sodipodi:nodetypes="aaaaaaaaa" />
    <path
       sodipodi:type="arc"
       style="fill:#ffffff;fill-opacity:1;stroke:#000000;stroke-width:1.00980389;stroke-miterlimit:4;stroke-opacity:1;stroke-dasharray:none"
       id="path3897"
       sodipodi:cx="28.5625"
       sodipodi:cy="17.3125"
       sodipodi:rx="5.9375"
       sodipodi:ry="5.9375"
       d="m 34.5,17.3125 c 0,3.279191 -2.658309,5.9375 -5.9375,5.9375 -3.279191,0 -5.9375,-2.658309 -5.9375,-5.9375 0,-3.279191 2.658309,-5.9375 5.9375,-5.9375 3.279191,0 5.9375,2.658309 5.9375,5.9375 z"
       transform="matrix(0.99029126,0,0,0.99029126,-1.5351942,1021.0928)" />
    <path
       sodipodi:type="arc"
       style="fill:#000000;fill-opacity:1;stroke:#000000;stroke-width:1;stroke-miterlimit:4;stroke-opacity:1;stroke-dasharray:none"
       id="path3899"
       sodipodi:cx="26.5"
       sodipodi:cy="16.5"
       sodipodi:rx="1.5"
       sodipodi:ry="1.5"
       d="m 28,16.5 a 1.5,1.5 0 1 1 -3,0 1.5,1.5 0 1 1 3,0 z"
       transform="matrix(0.625,0,0,0.625,9.0625,1028.9247)" />
    <path
       style="fill:url(#radialGradient4164);fill-opacity:1;stroke:none"
       d="m 3,18.375 c 0,0 0.875,-6 7,-9.25 C 16.125,5.875 17.375,5.5 19.875,5.875 22.375,6.25 20.5,13.5 15.375,17 10.25,20.5 2.5,23.125 3,18.375 z"
       id="path4156"
       inkscape:connector-curvature="0"
       transform="translate(0,1017.3622)"
       sodipodi:nodetypes="csssc" />
    <path
       sodipodi:type="arc"
       style="fill:#ffffff;fill-opacity:1;stroke:#000000;stroke-width:0.88235295;stroke-miterlimit:4;stroke-opacity:1;stroke-dasharray:none"
       id="path3756"
       sodipodi:cx="14.75"
       sodipodi:cy="18.375"
       sodipodi:rx="5.125"
       sodipodi:ry="5.125"
       d="m 19.875,18.375 c 0,2.830459 -2.294541,5.125 -5.125,5.125 -2.830459,0 -5.125,-2.294541 -5.125,-5.125 0,-2.830459 2.294541,-5.125 5.125,-5.125 2.830459,0 5.125,2.294541 5.125,5.125 z"
       transform="matrix(1.1333333,0,0,1.1333333,-2.8416667,1017.4122)" />
    <path
       sodipodi:type="arc"
       style="fill:#000000;fill-opacity:1;stroke:#000000;stroke-width:1;stroke-miterlimit:4;stroke-opacity:1;stroke-dasharray:none"
       id="path3760"
       sodipodi:cx="13.875"
       sodipodi:cy="17"
       sodipodi:rx="1.375"
       sodipodi:ry="1.375"
       d="m 15.25,17 a 1.375,1.375 0 1 1 -2.75,0 1.375,1.375 0 1 1 2.75,0 z"
       transform="matrix(0.66666667,0,0,0.66666667,3.625,1027.7788)" />
  </g>
</svg>
