<?xml version="1.0" encoding="UTF-8" standalone="no"?>
<!-- Created with Inkscape (http://www.inkscape.org/) -->

<svg
   xmlns:dc="http://purl.org/dc/elements/1.1/"
   xmlns:cc="http://creativecommons.org/ns#"
   xmlns:rdf="http://www.w3.org/1999/02/22-rdf-syntax-ns#"
   xmlns:svg="http://www.w3.org/2000/svg"
   xmlns="http://www.w3.org/2000/svg"
   xmlns:xlink="http://www.w3.org/1999/xlink"
   xmlns:sodipodi="http://sodipodi.sourceforge.net/DTD/sodipodi-0.dtd"
   xmlns:inkscape="http://www.inkscape.org/namespaces/inkscape"
   width="24"
   height="24"
   id="svg2"
   version="1.1"
   inkscape:version="0.48.5 r10040"
   inkscape:export-filename="/Users/takaya/Documents/puyo9.png"
   inkscape:export-xdpi="90"
   inkscape:export-ydpi="90"
   sodipodi:docname="puyo.svg">
  <defs
     id="defs4">
    <linearGradient
       id="linearGradient3843">
      <stop
         style="stop-color:#000000;stop-opacity:1;"
         offset="0"
         id="stop3845" />
      <stop
         style="stop-color:#ffffff;stop-opacity:0;"
         offset="1"
         id="stop3847" />
    </linearGradient>
    <linearGradient
       id="linearGradient3833">
      <stop
         style="stop-color:#319836;stop-opacity:1;"
         offset="0"
         id="stop3835" />
      <stop
         style="stop-color:#209925;stop-opacity:0;"
         offset="1"
         id="stop3837" />
    </linearGradient>
    <linearGradient
       inkscape:collect="always"
       xlink:href="#linearGradient3843"
       id="linearGradient3849"
       x1="4.138505"
       y1="5.859282"
       x2="8.3363028"
       y2="10.783775"
       gradientUnits="userSpaceOnUse" />
    <linearGradient
       inkscape:collect="always"
       xlink:href="#linearGradient3843"
       id="linearGradient3859"
       x1="20.834396"
       y1="20.962317"
       x2="18.187098"
       y2="17.868725"
       gradientUnits="userSpaceOnUse" />
  </defs>
  <sodipodi:namedview
     id="base"
     pagecolor="#ffffff"
     bordercolor="#666666"
     borderopacity="1.0"
     inkscape:pageopacity="0.0"
     inkscape:pageshadow="2"
     inkscape:zoom="31.678384"
     inkscape:cx="7.3127051"
     inkscape:cy="15.299676"
     inkscape:document-units="px"
     inkscape:current-layer="layer1"
     showgrid="false"
     showguides="true"
     inkscape:guide-bbox="true"
     inkscape:window-width="1280"
     inkscape:window-height="751"
     inkscape:window-x="0"
     inkscape:window-y="0"
     inkscape:window-maximized="1" />
  <metadata
     id="metadata7">
    <rdf:RDF>
      <cc:Work
         rdf:about="">
        <dc:format>image/svg+xml</dc:format>
        <dc:type
           rdf:resource="http://purl.org/dc/dcmitype/StillImage" />
        <dc:title></dc:title>
      </cc:Work>
    </rdf:RDF>
  </metadata>
  <g
     inkscape:label="レイヤー 1"
     inkscape:groupmode="layer"
     id="layer1"
     transform="translate(0,-1028.3622)">
    <path
       style="fill:#000000;fill-opacity:1;fill-rule:evenodd;stroke:#ffffff;stroke-width:1;stroke-miterlimit:4;stroke-opacity:1;stroke-dasharray:none"
       d="m 23.716731,1044.2484 c -0.214101,1.7935 -1.129585,3.6335 -2.447351,4.7006 -2.539336,2.0564 -6.066517,2.1899 -9.218095,2.2263 -2.7265343,0.031 -5.6378176,-0.2678 -8.0126393,-1.7418 -1.4272424,-0.8858 -2.8117707,-2.2811 -3.32185896,-4.0041 -0.74843033,-2.5277 -0.53591989,-5.7129 0.78546806,-7.9337 2.2426049,-3.7692 6.5675322,-6.6321 10.6405762,-6.6597 3.718102,-0.024 7.486356,2.7026 9.779857,5.9467 1.433009,2.0271 2.098777,4.9127 1.794043,7.4657 z"
       id="path2989"
       inkscape:connector-curvature="0"
       sodipodi:nodetypes="aaaaaaaaa" />
    <path
       style="fill:url(#linearGradient3859);fill-opacity:1;stroke:none"
       d="m 13.858031,22.169099 c 0,0 3.788071,0.599777 7.134202,-2.115008 1.118958,-0.907833 1.364904,-1.542354 1.681965,-2.40742 0.631077,-1.721825 0.769219,-3.201098 0.433042,-3.24312 -0.505077,-0.06314 -6.786963,3.409265 -9.249209,7.765548 z"
       id="path3851"
       inkscape:connector-curvature="0"
       transform="translate(0,1028.3622)"
       sodipodi:nodetypes="csscc" />
    <path
       sodipodi:type="arc"
       style="fill:#ffffff;fill-opacity:1;stroke:#000000;stroke-width:27.00761756;stroke-miterlimit:4;stroke-opacity:1;stroke-dasharray:none"
       id="path3768"
       sodipodi:cx="-185.71428"
       sodipodi:cy="583.79077"
       sodipodi:rx="74.285713"
       sodipodi:ry="71.428574"
       d="m -111.42857,583.79077 c 0,39.44891 -33.25884,71.42858 -74.28571,71.42858 -41.02687,0 -74.28571,-31.97967 -74.28571,-71.42858 0,-39.44891 33.25884,-71.42857 74.28571,-71.42857 41.02687,0 74.28571,31.97966 74.28571,71.42857 z"
       transform="matrix(0.03516704,0,0,0.03898447,13.787616,1020.1289)" />
    <path
       sodipodi:type="arc"
       style="fill:#000000;fill-opacity:1;stroke:none"
       id="path3790"
       sodipodi:cx="1044.2858"
       sodipodi:cy="456.64789"
       sodipodi:rx="27.142857"
       sodipodi:ry="27.142857"
       d="m 1071.4286,456.64789 c 0,14.99058 -12.1522,27.14285 -27.1428,27.14285 -14.9906,0 -27.1429,-12.15227 -27.1429,-27.14285 0,-14.99059 12.1523,-27.14286 27.1429,-27.14286 14.9906,0 27.1428,12.15227 27.1428,27.14286 z"
       transform="matrix(0.033008,0,0,0.03659106,-27.1703,1026.2862)" />
    <path
       sodipodi:type="arc"
       style="fill:#ffffff;fill-opacity:1;stroke:#000000;stroke-width:27.00761756;stroke-miterlimit:4;stroke-opacity:1;stroke-dasharray:none"
       id="path3768-9"
       sodipodi:cx="-185.71428"
       sodipodi:cy="583.79077"
       sodipodi:rx="74.285713"
       sodipodi:ry="71.428574"
       d="m -111.42857,583.79077 c 0,39.44891 -33.25884,71.42858 -74.28571,71.42858 -41.02687,0 -74.28571,-31.97967 -74.28571,-71.42858 0,-39.44891 33.25884,-71.42857 74.28571,-71.42857 41.02687,0 74.28571,31.97966 74.28571,71.42857 z"
       transform="matrix(0.03516704,0,0,0.03898447,23.482678,1020.2613)" />
    <path
       sodipodi:type="arc"
       style="fill:#000000;fill-opacity:1;stroke:none"
       id="path3790-9"
       sodipodi:cx="1044.2858"
       sodipodi:cy="456.64789"
       sodipodi:rx="27.142857"
       sodipodi:ry="27.142857"
       d="m 1071.4286,456.64789 c 0,14.99058 -12.1522,27.14285 -27.1428,27.14285 -14.9906,0 -27.1429,-12.15227 -27.1429,-27.14285 0,-14.99059 12.1523,-27.14286 27.1429,-27.14286 14.9906,0 27.1428,12.15227 27.1428,27.14286 z"
       transform="matrix(0.033008,0,0,0.03659106,-17.535411,1026.4584)" />
    <path
       style="fill:url(#linearGradient3849);fill-opacity:1;stroke:none"
       d="m 13.51079,2.9762001 c 0,0 -2.975727,-0.2549276 -6.1895886,1.3819298 C 6.3990119,4.8278119 5.1727321,5.5899201 4.3562829,6.4485995 3.238116,7.6246027 3.0001681,7.7738136 2.416136,8.5790759 1.0875641,10.410908 1.0347296,11.769265 0.947018,12.383246 0.82074904,13.267129 0.6944799,13.835341 0.88388353,14.971762 1.0732871,16.108184 8.8388348,12.320111 10.480333,10.994286 12.121831,9.6684607 16.225575,3.9232181 13.51079,2.9762001 z"
       id="path3841"
       inkscape:connector-curvature="0"
       transform="translate(0,1028.3622)"
       sodipodi:nodetypes="cssssssc" />
  </g>
</svg>
