<?xml version="1.0" encoding="UTF-8" standalone="no"?>
<!-- Created with Inkscape (http://www.inkscape.org/) -->

<svg
   xmlns:dc="http://purl.org/dc/elements/1.1/"
   xmlns:cc="http://creativecommons.org/ns#"
   xmlns:rdf="http://www.w3.org/1999/02/22-rdf-syntax-ns#"
   xmlns:svg="http://www.w3.org/2000/svg"
   xmlns="http://www.w3.org/2000/svg"
   xmlns:xlink="http://www.w3.org/1999/xlink"
   xmlns:sodipodi="http://sodipodi.sourceforge.net/DTD/sodipodi-0.dtd"
   xmlns:inkscape="http://www.inkscape.org/namespaces/inkscape"
   width="40"
   height="35"
   id="svg2"
   version="1.1"
   inkscape:version="0.48.5 r10040"
   sodipodi:docname="red.svg"
   inkscape:export-filename="/Users/takaya/Documents/javascript/puyopuyo/image/puyo3.png"
   inkscape:export-xdpi="90"
   inkscape:export-ydpi="90">
  <defs
     id="defs4">
    <linearGradient
       inkscape:collect="always"
       id="linearGradient4050">
      <stop
         style="stop-color:#ffffff;stop-opacity:1;"
         offset="0"
         id="stop4052" />
      <stop
         style="stop-color:#ffffff;stop-opacity:0;"
         offset="1"
         id="stop4054" />
    </linearGradient>
    <linearGradient
       inkscape:collect="always"
       id="linearGradient4009">
      <stop
         style="stop-color:#ffffff;stop-opacity:1;"
         offset="0"
         id="stop4011" />
      <stop
         style="stop-color:#ffffff;stop-opacity:0;"
         offset="1"
         id="stop4013" />
    </linearGradient>
    <linearGradient
       id="linearGradient3996">
      <stop
         style="stop-color:#ffffff;stop-opacity:1;"
         offset="0"
         id="stop3998" />
      <stop
         style="stop-color:#ffffff;stop-opacity:0;"
         offset="1"
         id="stop4000" />
    </linearGradient>
    <linearGradient
       id="linearGradient3956">
      <stop
         style="stop-color:#ffffff;stop-opacity:1;"
         offset="0"
         id="stop3958" />
      <stop
         style="stop-color:#ebc921;stop-opacity:0;"
         offset="1"
         id="stop3960" />
    </linearGradient>
    <radialGradient
       inkscape:collect="always"
       xlink:href="#linearGradient3996"
       id="radialGradient4002"
       cx="12"
       cy="9.25"
       fx="12"
       fy="9.25"
       r="2.25"
       gradientTransform="matrix(1,0,0,0.83333333,0,1.5416667)"
       gradientUnits="userSpaceOnUse" />
    <radialGradient
       inkscape:collect="always"
       xlink:href="#linearGradient4009"
       id="radialGradient4015"
       cx="10.877866"
       cy="7.3157144"
       fx="10.877866"
       fy="7.3157144"
       r="12.425912"
       gradientTransform="matrix(0.22702271,0.38055649,-0.71482578,0.42643264,15.709027,0.18264432)"
       gradientUnits="userSpaceOnUse" />
    <radialGradient
       inkscape:collect="always"
       xlink:href="#linearGradient4050"
       id="radialGradient4056"
       cx="24.736933"
       cy="35.092934"
       fx="24.736933"
       fy="35.092934"
       r="13.434251"
       gradientTransform="matrix(0.88509427,-0.465412,0.05582745,0.10616949,1.5735335,40.484674)"
       gradientUnits="userSpaceOnUse" />
  </defs>
  <sodipodi:namedview
     id="base"
     pagecolor="#ffffff"
     bordercolor="#666666"
     borderopacity="1.0"
     inkscape:pageopacity="0.0"
     inkscape:pageshadow="2"
     inkscape:zoom="8"
     inkscape:cx="16.869166"
     inkscape:cy="15.779627"
     inkscape:document-units="px"
     inkscape:current-layer="layer1"
     showgrid="false"
     inkscape:window-width="1277"
     inkscape:window-height="748"
     inkscape:window-x="0"
     inkscape:window-y="0"
     inkscape:window-maximized="0" />
  <metadata
     id="metadata7">
    <rdf:RDF>
      <cc:Work
         rdf:about="">
        <dc:format>image/svg+xml</dc:format>
        <dc:type
           rdf:resource="http://purl.org/dc/dcmitype/StillImage" />
        <dc:title></dc:title>
      </cc:Work>
    </rdf:RDF>
  </metadata>
  <g
     inkscape:label="レイヤー 1"
     inkscape:groupmode="layer"
     id="layer1"
     transform="translate(0,-1017.3622)">
    <path
       transform="translate(0,1017.3622)"
       style="fill:#f2435b;fill-opacity:1;stroke:#000000;stroke-opacity:1"
       d="m 37.625,19.6875 c 0.193044,3.503247 -1.507604,7.352332 -4.132336,9.68059 C 30.036499,32.433868 24.80723,33.203485 20.1875,33.25 15.311931,33.299091 9.8865406,32.465864 6.0658553,29.436682 4.1008571,27.878758 2.86812,25.292991 2.5,22.8125 1.8564135,18.475842 2.7023254,13.589018 5.1021799,9.920026 7.1824775,6.7395853 10.700096,4.0639501 14.4375,3.375 19.949382,2.358944 26.287091,4.082953 30.741931,7.484073 34.453992,10.318106 37.36804,15.024334 37.625,19.6875 z"
       id="path2985"
       inkscape:connector-curvature="0"
       sodipodi:nodetypes="aaaaaaaaa" />
    <path
       sodipodi:type="arc"
       style="fill:#ffffff;fill-opacity:1;stroke:#000000;stroke-width:1.00980389;stroke-miterlimit:4;stroke-opacity:1;stroke-dasharray:none"
       id="path3897"
       sodipodi:cx="28.5625"
       sodipodi:cy="17.3125"
       sodipodi:rx="5.9375"
       sodipodi:ry="5.9375"
       d="m 34.5,17.3125 a 5.9375,5.9375 0 1 1 -11.875,0 5.9375,5.9375 0 1 1 11.875,0 z"
       transform="matrix(0.99029126,0,0,0.99029126,-3.1601942,1015.2178)" />
    <path
       sodipodi:type="arc"
       style="fill:#000000;fill-opacity:1;stroke:#000000;stroke-width:1;stroke-miterlimit:4;stroke-opacity:1;stroke-dasharray:none"
       id="path3899"
       sodipodi:cx="26.5"
       sodipodi:cy="16.5"
       sodipodi:rx="1.5"
       sodipodi:ry="1.5"
       d="m 28,16.5 a 1.5,1.5 0 1 1 -3,0 1.5,1.5 0 1 1 3,0 z"
       transform="matrix(0.625,0,0,0.625,8.5625,1022.0497)" />
    <path
       style="fill:url(#radialGradient4015);fill-opacity:1;stroke:none"
       d="M 26,5.25 C 26,5.25 19,2.4999999 13.125,4.2499999 7.9058661,5.8046355 6.625,7.875 2.875,15.75 -0.875,23.625 19.75,13.125 23,9.75 c 3.25,-3.3750001 2.875,-4.5 3,-4.5 z"
       id="path4007"
       inkscape:connector-curvature="0"
       transform="translate(0,1017.3622)"
       sodipodi:nodetypes="csssc" />
    <path
       sodipodi:type="arc"
       style="fill:#ffffff;fill-opacity:1;stroke:#000000;stroke-width:0.88235295;stroke-miterlimit:4;stroke-opacity:1;stroke-dasharray:none"
       id="path3756"
       sodipodi:cx="14.75"
       sodipodi:cy="18.375"
       sodipodi:rx="5.125"
       sodipodi:ry="5.125"
       d="m 19.875,18.375 a 5.125,5.125 0 1 1 -10.25,0 5.125,5.125 0 1 1 10.25,0 z"
       transform="matrix(1.1333333,0,0,1.1333333,-3.5916667,1015.0372)" />
    <path
       sodipodi:type="arc"
       style="fill:#000000;fill-opacity:1;stroke:#000000;stroke-width:1;stroke-miterlimit:4;stroke-opacity:1;stroke-dasharray:none"
       id="path3760"
       sodipodi:cx="13.875"
       sodipodi:cy="17"
       sodipodi:rx="1.375"
       sodipodi:ry="1.375"
       d="m 15.25,17 a 1.375,1.375 0 1 1 -2.75,0 1.375,1.375 0 1 1 2.75,0 z"
       transform="matrix(0.66666667,0,0,0.66666667,3.875,1024.5288)" />
  </g>
</svg>
