<?xml version="1.0" encoding="UTF-8" standalone="no"?>
<!-- Created with Inkscape (http://www.inkscape.org/) -->

<svg
   xmlns:dc="http://purl.org/dc/elements/1.1/"
   xmlns:cc="http://creativecommons.org/ns#"
   xmlns:rdf="http://www.w3.org/1999/02/22-rdf-syntax-ns#"
   xmlns:svg="http://www.w3.org/2000/svg"
   xmlns="http://www.w3.org/2000/svg"
   xmlns:xlink="http://www.w3.org/1999/xlink"
   xmlns:sodipodi="http://sodipodi.sourceforge.net/DTD/sodipodi-0.dtd"
   xmlns:inkscape="http://www.inkscape.org/namespaces/inkscape"
   width="40"
   height="35"
   id="svg2"
   version="1.1"
   inkscape:version="0.48.5 r10040"
   sodipodi:docname="yellow.svg">
  <defs
     id="defs4">
    <linearGradient
       inkscape:collect="always"
       id="linearGradient4050">
      <stop
         style="stop-color:#ffffff;stop-opacity:1;"
         offset="0"
         id="stop4052" />
      <stop
         style="stop-color:#ffffff;stop-opacity:0;"
         offset="1"
         id="stop4054" />
    </linearGradient>
    <linearGradient
       inkscape:collect="always"
       id="linearGradient4009">
      <stop
         style="stop-color:#ffffff;stop-opacity:1;"
         offset="0"
         id="stop4011" />
      <stop
         style="stop-color:#ffffff;stop-opacity:0;"
         offset="1"
         id="stop4013" />
    </linearGradient>
    <linearGradient
       id="linearGradient3996">
      <stop
         style="stop-color:#ffffff;stop-opacity:1;"
         offset="0"
         id="stop3998" />
      <stop
         style="stop-color:#ffffff;stop-opacity:0;"
         offset="1"
         id="stop4000" />
    </linearGradient>
    <linearGradient
       id="linearGradient3956">
      <stop
         style="stop-color:#ffffff;stop-opacity:1;"
         offset="0"
         id="stop3958" />
      <stop
         style="stop-color:#ebc921;stop-opacity:0;"
         offset="1"
         id="stop3960" />
    </linearGradient>
    <radialGradient
       inkscape:collect="always"
       xlink:href="#linearGradient3996"
       id="radialGradient4002"
       cx="12"
       cy="9.25"
       fx="12"
       fy="9.25"
       r="2.25"
       gradientTransform="matrix(1,0,0,0.83333333,0,1.5416667)"
       gradientUnits="userSpaceOnUse" />
    <radialGradient
       inkscape:collect="always"
       xlink:href="#linearGradient4009"
       id="radialGradient4015"
       cx="14.022991"
       cy="7.4402409"
       fx="14.022991"
       fy="7.4402409"
       r="12.425912"
       gradientTransform="matrix(0.27278902,0.42111202,-1.0700791,0.69317867,17.710416,-2.3707204)"
       gradientUnits="userSpaceOnUse" />
    <radialGradient
       inkscape:collect="always"
       xlink:href="#linearGradient4050"
       id="radialGradient4056"
       cx="24.736933"
       cy="35.092934"
       fx="24.736933"
       fy="35.092934"
       r="13.434251"
       gradientTransform="matrix(0.88509427,-0.465412,0.05582745,0.10616949,1.5735335,40.484674)"
       gradientUnits="userSpaceOnUse" />
  </defs>
  <sodipodi:namedview
     id="base"
     pagecolor="#ffffff"
     bordercolor="#666666"
     borderopacity="1.0"
     inkscape:pageopacity="0.0"
     inkscape:pageshadow="2"
     inkscape:zoom="8"
     inkscape:cx="16.869166"
     inkscape:cy="15.779627"
     inkscape:document-units="px"
     inkscape:current-layer="layer1"
     showgrid="false"
     inkscape:window-width="1277"
     inkscape:window-height="748"
     inkscape:window-x="0"
     inkscape:window-y="0"
     inkscape:window-maximized="0" />
  <metadata
     id="metadata7">
    <rdf:RDF>
      <cc:Work
         rdf:about="">
        <dc:format>image/svg+xml</dc:format>
        <dc:type
           rdf:resource="http://purl.org/dc/dcmitype/StillImage" />
        <dc:title />
      </cc:Work>
    </rdf:RDF>
  </metadata>
  <g
     inkscape:label="レイヤー 1"
     inkscape:groupmode="layer"
     id="layer1"
     transform="translate(0,-1017.3622)">
    <path
       transform="translate(0,1017.3622)"
       style="fill:#f2ca43;fill-opacity:1;stroke:#000000;stroke-opacity:1"
       d="m 38,20.8125 c 0.07999,2.823791 -0.600349,6.093137 -2.632336,8.05559 C 31.579325,32.526792 25.453954,33.204502 20.1875,33.25 15.311866,33.292122 9.8865406,32.465864 6.0658553,29.436682 4.1008571,27.878758 2.7463145,25.308031 2.5,22.8125 2.0970661,18.730181 3.6103723,14.303642 6.1021799,11.045026 9.4430491,6.6760653 14.563554,2.3540099 20.0625,2.25 25.377226,2.1494745 30.404206,6.2009663 33.866931,10.234073 36.333018,13.106375 37.892809,17.028294 38,20.8125 z"
       id="path2985"
       inkscape:connector-curvature="0"
       sodipodi:nodetypes="aaaaaaaaa" />
    <path
       sodipodi:type="arc"
       style="fill:#ffffff;fill-opacity:1;stroke:#000000;stroke-width:1.00980389;stroke-miterlimit:4;stroke-opacity:1;stroke-dasharray:none"
       id="path3897"
       sodipodi:cx="28.5625"
       sodipodi:cy="17.3125"
       sodipodi:rx="5.9375"
       sodipodi:ry="5.9375"
       d="m 34.5,17.3125 c 0,3.279191 -2.658309,5.9375 -5.9375,5.9375 -3.279191,0 -5.9375,-2.658309 -5.9375,-5.9375 0,-3.279191 2.658309,-5.9375 5.9375,-5.9375 3.279191,0 5.9375,2.658309 5.9375,5.9375 z"
       transform="matrix(0.99029126,0,0,0.99029126,-1.7851942,1017.8428)" />
    <path
       sodipodi:type="arc"
       style="fill:#000000;fill-opacity:1;stroke:#000000;stroke-width:1;stroke-miterlimit:4;stroke-opacity:1;stroke-dasharray:none"
       id="path3899"
       sodipodi:cx="26.5"
       sodipodi:cy="16.5"
       sodipodi:rx="1.5"
       sodipodi:ry="1.5"
       d="m 28,16.5 a 1.5,1.5 0 1 1 -3,0 1.5,1.5 0 1 1 3,0 z"
       transform="matrix(0.625,0,0,0.625,9.9375,1025.9247)" />
    <path
       style="fill:url(#radialGradient4015);fill-opacity:1;stroke:none"
       d="m 28.375,6.125 c 0,0 -4.125,-4.0000001 -9.5,-3.1250001 C 13.5,3.875 7.75,7.875 4,15.75 c -3.75,7.875 15.75,-2.625 19,-6 3.25,-3.3750001 5.25,-3.625 5.375,-3.625 z"
       id="path4007"
       inkscape:connector-curvature="0"
       transform="translate(0,1017.3622)"
       sodipodi:nodetypes="csssc" />
    <path
       sodipodi:type="arc"
       style="fill:#ffffff;fill-opacity:1;stroke:#000000;stroke-width:0.88235295;stroke-miterlimit:4;stroke-opacity:1;stroke-dasharray:none"
       id="path3756"
       sodipodi:cx="14.75"
       sodipodi:cy="18.375"
       sodipodi:rx="5.125"
       sodipodi:ry="5.125"
       d="m 19.875,18.375 c 0,2.830459 -2.294541,5.125 -5.125,5.125 -2.830459,0 -5.125,-2.294541 -5.125,-5.125 0,-2.830459 2.294541,-5.125 5.125,-5.125 2.830459,0 5.125,2.294541 5.125,5.125 z"
       transform="matrix(1.1333333,0,0,1.1333333,-2.8416667,1014.2872)" />
    <path
       sodipodi:type="arc"
       style="fill:#000000;fill-opacity:1;stroke:#000000;stroke-width:1;stroke-miterlimit:4;stroke-opacity:1;stroke-dasharray:none"
       id="path3760"
       sodipodi:cx="13.875"
       sodipodi:cy="17"
       sodipodi:rx="1.375"
       sodipodi:ry="1.375"
       d="m 15.25,17 a 1.375,1.375 0 1 1 -2.75,0 1.375,1.375 0 1 1 2.75,0 z"
       transform="matrix(0.66666667,0,0,0.66666667,4.875,1024.9038)" />
  </g>
</svg>
